<svg xmlns="http://www.w3.org/2000/svg" width="62.001" height="62.001" viewBox="0 0 62.001 62.001"><g transform="translate(-0.999 -0.999)"><path d="M52.722,57H54V55H52.722a1.983,1.983,0,0,0-3.444,0H44.722a1.983,1.983,0,0,0-3.444,0H36.722a1.983,1.983,0,0,0-3.444,0H28.722a1.983,1.983,0,0,0-3.444,0H24v2h1.278a1.983,1.983,0,0,0,3.444,0h4.556a1.983,1.983,0,0,0,3.444,0h4.556a1.983,1.983,0,0,0,3.444,0h4.556a1.983,1.983,0,0,0,3.444,0Z"/><path d="M19,35h2v8H19Z"/><path d="M22,35h2v8H22Z"/><path d="M25,35h2v8H25Z"/><path d="M61.707,32.293A2.432,2.432,0,0,1,61,30.586V27a1,1,0,0,0-1-1V12.816A2.993,2.993,0,0,0,59,7H43a2.993,2.993,0,0,0-1,5.816V26a1,1,0,0,0-1,1v3.586a2.293,2.293,0,0,1-.037.414H36V16.949a2.5,2.5,0,0,0,0-4.9V9.485a6.956,6.956,0,0,0-2.05-4.95L30.707,1.292a1,1,0,0,0-1.414,0l-2,2a1,1,0,0,0,0,1.414l3.121,3.121A1.991,1.991,0,0,1,31,9.243v2.808a2.5,2.5,0,0,0,0,4.9V31H29V28a1,1,0,0,0-1-1H27V24a1,1,0,0,0-1-1H22a1,1,0,0,0-1,1v3H20a1,1,0,0,0-1,1v3H18a3,3,0,0,0-3,3v1.219l-2,.5V24a1,1,0,0,0-1-1H9A1,1,0,0,0,8,23.9L6.674,37.866A18.708,18.708,0,0,1,1.292,49.293,1,1,0,0,0,2,51H12a1,1,0,0,0,1-1V48.344l6.828,2.048A6.991,6.991,0,0,0,24,63H54a6.994,6.994,0,0,0,3-13.315V47h3a3,3,0,0,0,3-3V35.414a4.382,4.382,0,0,0-1.293-3.121ZM43,9H59a1,1,0,0,1,0,2H43a1,1,0,0,1,0-2Zm1,7h9a1,1,0,0,1,1,1v6H44Zm0,9H55a1,1,0,0,0,1-1V17a3,3,0,0,0-3-3H44V13H58V26H44ZM36,41V39H56v2ZM29.414,4,30,3.414,32.536,5.95A4.967,4.967,0,0,1,34,9.485V12H33V9.243a3.975,3.975,0,0,0-1.172-2.829ZM31.5,14h4a.5.5,0,0,1,0,1h-4a.5.5,0,0,1,0-1ZM33,17h1V31H33ZM23,25h2v2H23Zm-2,4h6v2H21Zm-4,5a1,1,0,0,1,1-1H39.717A4.378,4.378,0,0,0,39,35.414V37H35a1,1,0,0,0-1,1v4a1,1,0,0,0,1,1h4v2H18a1,1,0,0,1-1-1ZM28,60v1H26V60Zm2,0h2v1H30Zm4,0h2v1H34Zm4,0h2v1H38Zm4,0h2v1H42Zm4,0h2v1H46Zm4,0h2v1H50Zm1-2H24a2,2,0,0,1,0-4H54a2,2,0,0,1,0,4ZM20.567,53.981A4,4,0,0,0,20.142,55H19.1a4.961,4.961,0,0,1,.732-1.753ZM20.142,57a3.915,3.915,0,0,0,.425,1.019l-.734.734A4.961,4.961,0,0,1,19.1,57Zm37.291,1.019A4,4,0,0,0,57.858,57H58.9a4.961,4.961,0,0,1-.732,1.753ZM57.858,55a3.915,3.915,0,0,0-.425-1.019l.734-.734A4.961,4.961,0,0,1,58.9,55Zm-1.839-2.433A3.947,3.947,0,0,0,54,52V51a4.969,4.969,0,0,1,2.753.833ZM52,52H50V51h2Zm-4,0H46V51h2Zm-4,0H42V51h2Zm-4,0H38V51h2Zm-4,0H34V51h2Zm-4,0H30V51h2Zm-4,0H26V51h2Zm-4,0a3.947,3.947,0,0,0-2.019.567l-.734-.734A4.969,4.969,0,0,1,24,51ZM13,42.256v-.477l2-.5v1.576Zm2-4.976v1.939l-2,.5V37.779ZM11,49H4.233A20.719,20.719,0,0,0,8.666,38.056L9.909,25H11Zm2-4.656L15.184,45A3,3,0,0,0,18,47h3v1.656l-8-2.4Zm8.247,15.823.734-.734A3.947,3.947,0,0,0,24,60v1A4.969,4.969,0,0,1,21.247,60.167ZM54,60a3.947,3.947,0,0,0,2.019-.567l.734.734A4.969,4.969,0,0,1,54,61Zm1-10.92A7.026,7.026,0,0,0,54,49H24a7.026,7.026,0,0,0-1,.08V47H55ZM61,44a1,1,0,0,1-1,1H41V43H57a1,1,0,0,0,1-1V38a1,1,0,0,0-1-1H41V35.414a2.432,2.432,0,0,1,.707-1.707A4.382,4.382,0,0,0,43,30.586V28H59v2.586a4.382,4.382,0,0,0,1.293,3.121A2.432,2.432,0,0,1,61,35.414Z"/><path d="M57,29H51a1,1,0,0,0-1,1v3a1,1,0,0,0,1,1h6a1,1,0,0,0,1-1V30A1,1,0,0,0,57,29Zm-1,3H52V31h4Z"/></g></svg>