<svg xmlns="http://www.w3.org/2000/svg" width="62" height="61.968" viewBox="0 0 62 61.968"><path d="M62.707,18.293l-6-6a.989.989,0,0,0-.376-.227l0-.008-31-11-.01.029a1.06,1.06,0,0,0-.781.042l-.007-.014L3.695,12.031A2.993,2.993,0,0,0,1,15v8a1,1,0,0,0,1,1H6a1,1,0,0,0,1-1V20h9.184A2.966,2.966,0,0,0,16,21a3,3,0,0,0,3,3h1V46.957c0,.015-.009.029-.009.045L20,51.7l-3.831,5.747.015.01A.976.976,0,0,0,16,58v4a1,1,0,0,0,1,1H33a1,1,0,0,0,1-1V58a.976.976,0,0,0-.183-.545l.015-.01L30,51.7,29.991,47H30V24h1a3,3,0,0,0,3-3,2.966,2.966,0,0,0-.184-1H48v5H47a2,2,0,0,0-2,2v4a2,2,0,0,0,2,2h3.029a6.993,6.993,0,0,0,2.329,4.532,1.988,1.988,0,0,1,.609,1.839,2.025,2.025,0,0,1-1.6,1.6A2,2,0,0,1,49,39V38H47v1a4,4,0,0,0,4.007,4,4.153,4.153,0,0,0,.71-.062,4,4,0,0,0,2-6.874A5.084,5.084,0,0,1,52.033,33H55a2,2,0,0,0,2-2V27a2,2,0,0,0-2-2H54V20h8a1,1,0,0,0,.707-1.707ZM30,9V8.413L40.162,12H31.9a4.994,4.994,0,0,0-1.93-3Zm-2-.9A5,5,0,0,0,27,8H26V4.851l2,2.5Zm-4-3.25V8H22V7.351ZM23,10h4a3,3,0,0,1,3,3v2H23Zm9,4h1.865L32,16.238Zm11.865,0L41,17.438,38.135,14Zm2.306-2L29.6,6.152,27.973,4.116,50.192,12ZM20.219,6.375A1,1,0,0,0,20,7V8H19a1,1,0,0,0-1,1v3H8.064L21.242,5.1ZM18,16.238,16.135,14H18ZM10,14h1.865L10,16.238Zm4,.562L16.865,18h-5.73ZM20,10h1v6a1,1,0,0,0,1,1h8v1H20Zm16,4.562L38.865,18h-5.73Zm10,0L48.865,18h-5.73ZM48.135,14h5.73L51,17.438ZM8,18H6a1,1,0,0,0-1,1v3H3V15a1,1,0,0,1,1-1H8ZM28,44.586,26.414,43,28,41.414ZM23.586,43,22,44.586V41.414Zm-1.172-4L25,36.414,27.586,39,25,41.586Zm-.421,9h6l0,3H22Zm1.421-2L25,44.414,26.586,46ZM28,36.586,26.414,35,28,33.414Zm-3-3L22.414,31,25,28.414,27.586,31Zm-3-5V25.414L23.586,27Zm0,4.828L23.586,35,22,36.586ZM28.465,53l2.667,4H18.868l2.667-4ZM26.414,27,28,25.414v3.172ZM25,25.586,23.414,24h3.172ZM32,61H18V59H32Zm0-40a1,1,0,0,1-1,1H19a1,1,0,0,1,0-2H31A1,1,0,0,1,32,21ZM55,31H47V27h8Zm-3-6H50V20h2Zm1.135-7,2.932-3.519L59.586,18Z" transform="translate(-1 -1.032)"/></svg>