<?xml version="1.0" standalone="no"?>
<!DOCTYPE svg PUBLIC "-//W3C//DTD SVG 20010904//EN"
 "http://www.w3.org/TR/2001/REC-SVG-20010904/DTD/svg10.dtd">
<svg version="1.0" xmlns="http://www.w3.org/2000/svg"
 width="90pt" height="80pt" viewBox="0 0 1597.000000 1597.000000"
 preserveAspectRatio="xMidYMid meet">

<g transform="translate(0.000000,1597.000000) scale(0.100000,-0.100000)"
fill="#000000" stroke="none">
<path d="M1909 10956 c-56 -20 -96 -53 -126 -104 l-28 -47 -3 -417 -3 -418
-654 0 c-439 0 -671 -4 -707 -11 -177 -37 -325 -176 -370 -348 -14 -55 -17
-116 -17 -368 -1 -184 3 -323 10 -355 39 -185 192 -338 377 -377 34 -7 201
-11 457 -11 l404 0 3 -293 3 -294 30 -49 c19 -30 49 -60 79 -79 l49 -30 419
-3 418 -3 0 -139 0 -140 -655 0 c-439 0 -671 -4 -707 -11 -186 -39 -338 -191
-377 -377 -6 -29 -11 -142 -11 -250 0 -215 9 -270 56 -364 35 -70 130 -167
196 -200 45 -24 367 -148 464 -180 l31 -10 6 -122 c10 -201 57 -352 162 -512
134 -206 346 -355 592 -416 125 -31 331 -31 457 0 169 42 343 140 462 260 l58
58 65 -65 c422 -416 1122 -358 1478 122 52 71 127 218 149 295 l15 52 155 0
154 0 0 -30 c0 -16 5 -53 11 -82 38 -184 193 -339 377 -377 73 -15 1371 -15
1444 0 184 38 339 193 377 377 6 29 11 66 11 82 l0 30 154 0 153 0 23 -69
c100 -313 368 -565 687 -647 339 -87 697 10 942 255 l56 56 56 -56 c330 -330
848 -381 1237 -122 190 126 347 339 402 544 l11 39 1169 0 c815 0 1185 3 1222
11 185 39 338 192 377 377 7 35 11 237 11 590 l0 537 -210 735 c-131 458 -222
761 -243 805 -89 185 -269 333 -477 392 -60 17 -121 18 -845 18 -865 0 -804 5
-874 -66 -61 -60 -66 -78 -69 -261 l-4 -168 -142 0 -143 0 -12 43 c-27 90 -75
161 -191 280 -144 149 -181 172 -275 172 -78 -1 -113 -15 -164 -66 -42 -42
-61 -80 -68 -138 -9 -77 17 -138 94 -220 l65 -71 -1236 0 c-863 0 -1251 -3
-1288 -11 -184 -38 -339 -193 -377 -377 -7 -34 -11 -201 -11 -457 l0 -405
-1765 0 -1765 0 0 139 0 139 153 4 c148 3 153 4 207 34 60 33 112 99 130 162
5 20 10 114 10 207 l0 170 1529 588 1528 587 3620 0 3620 0 36 -72 c73 -144
106 -167 569 -399 l378 -189 0 -318 c0 -361 3 -383 71 -451 107 -107 284 -86
364 43 l30 49 3 860 c3 939 4 913 -55 1034 -15 31 -53 82 -85 114 -53 54 -88
73 -540 301 l-483 243 -5598 3 -5598 2 -77 66 c-81 69 -198 132 -297 161 -53
15 -127 18 -675 20 -488 2 -622 0 -651 -11z m1258 -486 c63 -32 103 -74 129
-136 12 -29 164 -1042 164 -1096 0 -17 -29 -18 -620 -18 l-620 0 0 640 0 640
443 0 444 0 60 -30z m11333 -360 l0 -140 -5335 0 c-2934 0 -5335 2 -5335 5 0
7 -29 203 -35 243 l-6 32 5356 0 5355 0 0 -140z m740 -140 l260 -130 0 -235
c0 -129 -2 -235 -5 -235 -3 0 -122 59 -265 130 l-260 130 0 235 c0 129 2 235
5 235 3 0 122 -59 265 -130z m-13490 -609 l0 -139 -152 -4 c-148 -3 -155 -4
-207 -33 -65 -36 -115 -100 -132 -167 l-11 -48 -389 0 -389 0 0 265 0 265 640
0 640 0 0 -139z m4195 130 c-58 -24 -1717 -661 -1721 -661 -2 0 -4 35 -4 78 0
93 -10 133 -49 194 -36 56 -114 105 -184 114 -37 5 -48 11 -52 28 -5 26 -35
233 -35 246 0 7 372 10 1033 9 567 0 1023 -4 1012 -8z m-2195 -1006 l0 -265
-1015 0 -1015 0 0 265 0 265 1015 0 1015 0 0 -265z m8003 -307 c3 -501 5 -580
20 -629 78 -261 266 -449 526 -526 48 -14 123 -17 504 -20 l447 -4 0 -390 0
-389 -890 0 -890 0 0 1265 0 1265 139 0 140 0 4 -572z m967 548 c48 -25 98
-74 120 -117 15 -28 291 -971 325 -1111 l7 -28 -364 0 c-420 0 -431 2 -508 80
-81 80 -80 69 -80 672 l0 529 233 -3 c203 -3 236 -5 267 -22z m-2470 -866 l0
-390 -1265 0 -1265 0 0 390 0 390 1265 0 1265 0 0 -390z m750 0 l0 -390 -140
0 -140 0 0 390 0 390 140 0 140 0 0 -390z m-7750 -250 l0 -140 -265 0 -265 0
0 140 0 140 265 0 265 0 0 -140z m7750 -1000 l0 -390 -29 0 c-26 0 -30 5 -50
67 -105 318 -365 564 -690 651 -133 35 -342 37 -475 4 -169 -42 -342 -140
-463 -260 l-58 -59 -53 54 c-168 171 -403 276 -652 290 -435 24 -842 -258
-981 -680 l-22 -67 -153 0 -154 0 0 30 c0 206 -176 415 -388 459 -36 7 -272
11 -722 11 -450 0 -686 -4 -722 -11 -184 -38 -339 -193 -377 -377 -6 -29 -11
-66 -11 -82 l0 -30 -154 0 -154 0 -22 66 c-102 317 -365 565 -689 651 -80 22
-119 26 -236 27 -203 1 -354 -39 -512 -135 -83 -50 -196 -142 -224 -180 l-20
-29 -61 60 c-122 122 -295 220 -464 262 -119 29 -322 31 -439 4 -222 -51 -421
-175 -556 -346 -34 -44 -65 -80 -68 -80 -3 0 -96 34 -206 76 -110 41 -206 77
-212 79 -10 3 -13 45 -13 165 l0 160 5015 0 5015 0 0 -390z m-8645 -125 c88
-23 158 -60 221 -117 69 -64 108 -119 141 -205 23 -59 27 -82 26 -178 0 -87
-4 -122 -21 -169 -90 -244 -343 -387 -594 -335 -189 39 -358 208 -397 397 -36
174 14 339 143 468 133 133 308 183 481 139z m1500 0 c128 -33 246 -117 314
-224 57 -88 74 -153 74 -276 0 -88 -4 -122 -21 -169 -90 -244 -343 -387 -594
-335 -189 39 -358 208 -397 397 -36 174 14 339 143 468 133 132 309 183 481
139z m4750 0 c100 -26 165 -63 241 -139 76 -76 113 -141 139 -241 29 -113 14
-238 -42 -355 -38 -78 -151 -189 -233 -227 -207 -98 -425 -60 -586 101 -42 42
-81 93 -97 126 -102 212 -66 433 97 596 132 132 309 183 481 139z m1500 0
c100 -26 165 -63 241 -139 128 -129 179 -295 143 -468 -39 -189 -208 -358
-397 -397 -112 -23 -223 -10 -332 42 -82 38 -195 149 -233 227 -102 212 -66
433 97 596 132 132 309 183 481 139z m-3355 -500 l0 -265 -640 0 -640 0 0 265
0 265 640 0 640 0 0 -265z"/>
<path d="M2157 6205 c-58 -22 -94 -52 -124 -103 -24 -39 -28 -59 -28 -118 0
-61 4 -77 30 -120 80 -129 257 -150 364 -43 92 92 92 235 0 328 -65 64 -159
86 -242 56z"/>
<path d="M3654 6204 c-47 -17 -105 -69 -131 -117 -12 -21 -18 -55 -18 -103 0
-61 4 -77 30 -120 80 -129 257 -150 364 -43 92 92 92 235 0 328 -66 65 -158
86 -245 55z"/>
<path d="M8403 6204 c-82 -30 -153 -131 -153 -219 0 -51 29 -121 66 -159 54
-56 89 -70 169 -70 80 0 115 14 169 70 37 38 66 108 66 159 0 54 -30 122 -71
164 -66 65 -158 86 -246 55z"/>
<path d="M9903 6204 c-82 -30 -153 -131 -153 -219 0 -80 57 -172 133 -212 43
-24 160 -24 203 -1 108 58 157 175 120 286 -42 124 -178 190 -303 146z"/>
</g>
</svg>
