<?xml version="1.0" standalone="no"?>
<!DOCTYPE svg PUBLIC "-//W3C//DTD SVG 20010904//EN"
 "http://www.w3.org/TR/2001/REC-SVG-20010904/DTD/svg10.dtd">
<svg version="1.0" xmlns="http://www.w3.org/2000/svg"
 width="85pt" height="60pt" viewBox="0 0 1815.000000 849.000000"
 preserveAspectRatio="xMidYMid meet">

<g transform="translate(0.000000,849.000000) scale(0.100000,-0.100000)"
fill="#000000" stroke="none">
<path d="M11650 8480 c-398 -39 -790 -187 -1101 -419 -688 -511 -1006 -1409
-804 -2266 13 -55 28 -113 34 -129 l11 -28 -397 7 c-219 4 -399 8 -401 10 -2
1 119 247 269 546 l271 544 -4 58 c-5 65 -26 101 -79 132 -34 20 -54 20 -2224
23 -2419 3 -2244 7 -2299 -59 -31 -36 -49 -99 -40 -136 4 -15 128 -270 275
-565 148 -296 269 -540 269 -543 0 -3 -442 -5 -983 -5 -614 0 -995 -4 -1016
-10 -46 -13 -99 -65 -111 -110 -14 -50 -13 -443 1 -491 15 -47 54 -86 105
-104 21 -7 42 -19 46 -27 4 -7 89 -424 189 -927 192 -961 189 -948 252 -995
27 -20 43 -21 303 -24 l274 -3 0 -333 0 -332 -186 -134 c-131 -93 -191 -130
-200 -124 -7 5 -624 664 -1371 1465 -911 976 -1366 1471 -1382 1503 -29 55
-92 114 -159 148 l-47 23 -440 0 -440 0 -55 -28 c-72 -37 -131 -96 -166 -165
-27 -54 -29 -65 -32 -212 -3 -124 -1 -165 13 -210 33 -109 126 -202 235 -235
48 -14 107 -16 466 -13 l411 3 73 37 c70 36 74 37 93 20 33 -29 2432 -2602
2434 -2610 1 -4 -311 -230 -693 -502 -382 -272 -718 -514 -746 -538 -27 -23
-71 -55 -97 -69 -25 -15 -102 -79 -171 -141 -69 -63 -162 -142 -208 -175 l-83
-62 5 -44 c8 -61 39 -106 90 -130 41 -21 56 -21 662 -21 l621 0 1092 365 c600
201 1093 365 1096 365 2 0 29 -37 61 -82 74 -107 208 -239 309 -306 422 -280
944 -280 1365 1 108 72 264 232 334 345 l59 92 1052 0 c971 0 1056 -1 1091
-17 31 -14 77 -18 219 -21 l180 -4 40 -71 c62 -111 150 -224 249 -322 469
-463 1184 -555 1759 -225 226 129 431 340 557 575 49 90 50 91 99 104 27 7 72
27 100 44 72 46 864 800 902 859 66 102 87 253 53 368 -9 30 -75 171 -146 315
-71 143 -126 256 -121 250 5 -5 53 -81 106 -167 139 -223 215 -294 372 -344
191 -61 411 -14 561 119 32 29 531 568 1110 1199 756 824 1058 1160 1074 1195
29 61 36 153 17 213 -7 25 -103 191 -212 370 -219 361 -212 349 -198 335 6 -5
85 -127 177 -270 91 -143 188 -286 216 -317 59 -67 177 -132 260 -143 61 -8
24 45 340 -492 133 -227 247 -413 253 -413 30 -1 607 195 604 204 -2 6 -57
226 -123 488 l-119 477 22 23 c12 13 34 50 50 83 24 53 28 72 27 155 0 95 0
96 -83 315 -46 121 -95 242 -108 270 -42 82 -136 171 -228 216 -74 36 -77 39
-45 39 51 0 132 42 169 86 63 77 64 92 41 550 -24 499 -24 499 -61 574 -49 97
-139 156 -252 166 -52 5 -78 1 -162 -26 -355 -115 -642 -335 -858 -658 -112
-168 -227 -423 -227 -504 1 -81 57 -161 128 -183 22 -6 21 -8 -17 -27 -55 -27
-125 -107 -145 -165 -32 -92 -16 -201 41 -288 l26 -40 -44 41 c-71 65 -160 80
-249 42 -27 -12 -2416 -2026 -2703 -2280 -102 -90 -134 -173 -104 -268 8 -25
80 -151 161 -280 81 -129 130 -215 110 -190 -66 80 -279 285 -365 350 -95 71
-129 88 -192 94 -44 4 -62 -5 -472 -235 -235 -131 -432 -239 -437 -239 -6 0
-51 16 -100 36 -372 148 -780 136 -1163 -36 l-67 -30 -473 0 c-436 0 -478 -1
-534 -19 -148 -46 -265 -168 -302 -315 l-11 -46 -1089 0 -1088 0 -63 44 c-197
137 -433 209 -683 209 -252 -1 -463 -65 -675 -207 l-83 -56 -389 0 -388 0 0
295 0 294 3628 3 3627 3 57 23 c79 32 160 108 198 185 21 45 72 235 181 677
131 537 149 622 144 669 -11 105 -64 191 -147 237 l-53 29 -1205 -4 c-663 -2
-1308 -6 -1435 -10 -227 -7 -231 -8 -288 -36 -106 -53 -192 -167 -218 -293 -7
-35 -9 -230 -7 -602 l3 -550 -2047 0 -2048 0 0 815 0 815 2093 4 c2189 4 5301
28 5352 41 98 25 191 102 233 194 21 45 26 71 27 136 0 71 -4 88 -33 147 -53
107 -150 178 -269 193 -41 5 -52 11 -56 28 -9 36 -124 626 -137 703 l-13 71
337 684 c185 376 342 703 348 727 25 101 -14 234 -92 312 -46 46 -219 135
-370 190 -121 45 -326 96 -460 115 -141 20 -392 27 -520 15z m386 -311 c145
-14 321 -52 447 -95 135 -47 307 -129 307 -147 0 -7 -156 -331 -347 -718
l-348 -704 3 -65 c1 -36 35 -230 75 -432 l73 -368 -1067 0 -1068 0 -31 98
c-185 596 -65 1262 315 1747 78 99 236 253 335 326 375 277 840 404 1306 358z
m5384 -861 c0 -32 27 -573 33 -674 l3 -51 -444 -7 c-244 -4 -447 -5 -450 -1
-10 9 44 112 116 220 128 194 339 380 535 470 66 31 182 74 200 75 4 0 7 -15
7 -32z m-8320 -683 c0 -3 -109 -223 -242 -490 l-243 -485 -1405 0 -1405 0
-243 485 c-133 267 -242 487 -242 490 0 3 851 5 1890 5 1040 0 1890 -2 1890
-5z m8363 -678 c27 -16 57 -43 68 -60 26 -45 169 -432 169 -461 0 -55 -18 -63
-330 -141 -162 -41 -314 -75 -338 -75 -48 0 -86 17 -118 52 -19 20 -429 652
-455 700 -10 18 4 19 473 16 l483 -3 48 -28z m-1203 -247 c6 -11 8 -20 6 -20
-3 0 -10 9 -16 20 -6 11 -8 20 -6 20 3 0 10 -9 16 -20z m-51 -524 l200 -329
-37 -43 c-20 -23 -494 -540 -1052 -1149 -956 -1042 -1019 -1108 -1077 -1137
-109 -53 -234 -37 -305 39 -32 36 -490 772 -486 783 4 10 2551 2170 2554 2167
2 -1 93 -151 203 -331z m-3609 139 c7 -8 10 -21 7 -29 -8 -19 -315 -25 -1824
-32 l-1253 -7 0 42 0 41 1529 0 c1341 0 1530 -2 1541 -15z m-3400 -25 l0 -30
-2780 0 -2780 0 0 30 0 30 2780 0 2780 0 0 -30z m-4320 -1185 l0 -815 -269 0
-269 0 90 360 90 360 84 0 84 0 0 165 0 165 -162 0 c-182 0 -226 -12 -266 -67
-14 -19 -48 -138 -97 -334 -41 -167 -79 -312 -83 -322 -4 -11 -57 235 -136
630 -71 356 -131 654 -134 661 -3 9 107 12 532 12 l536 0 0 -815z m12769 668
c89 -339 92 -363 51 -363 -10 0 -210 332 -210 348 0 6 107 45 142 51 4 0 12
-16 17 -36z m-5305 -310 c-191 -794 -284 -1158 -300 -1174 -18 -17 -69 -18
-1226 -21 l-1207 -3 -3 545 c-2 300 0 559 5 577 4 17 16 42 26 55 l19 23 734
5 c1768 12 1957 12 1952 -7z m573 -1602 c43 -37 117 -109 165 -159 86 -89 89
-93 223 -361 112 -225 135 -278 135 -315 0 -24 -3 -52 -6 -61 -4 -9 -158 -161
-343 -336 l-336 -319 -6 187 c-4 137 -12 213 -27 279 -63 279 -186 505 -385
710 l-108 112 133 75 c73 41 205 115 293 165 88 50 166 91 172 91 7 1 48 -30
90 -68z m-1385 -267 c124 -25 259 -81 381 -157 l38 -23 -145 -128 c-80 -70
-146 -131 -146 -134 0 -6 135 -165 189 -224 4 -5 79 55 166 131 125 109 163
137 174 128 23 -19 92 -127 131 -206 49 -98 86 -209 103 -308 l13 -78 -300 -5
-301 -5 -3 -152 -3 -153 300 -2 299 -3 -23 -92 c-33 -131 -84 -248 -148 -344
-61 -92 -82 -119 -90 -119 -2 0 -69 79 -148 175 -82 101 -147 171 -153 168
-19 -12 -226 -184 -226 -189 0 -2 65 -84 145 -181 80 -97 144 -182 142 -188
-2 -5 -55 -36 -118 -67 -115 -58 -239 -100 -336 -113 l-53 -7 0 99 c0 54 -3
196 -7 315 l-6 218 -141 0 c-78 0 -147 -4 -154 -9 -11 -7 -13 -62 -7 -311 l8
-303 -49 7 c-66 10 -209 58 -286 97 -70 35 -194 114 -204 131 -4 5 57 74 135
152 l141 141 -110 110 -110 110 -140 -140 c-114 -114 -142 -137 -151 -125 -80
120 -147 278 -178 417 l-9 43 77 1 c281 5 446 15 445 27 -1 6 -2 76 -2 154
l-2 141 -264 -7 -264 -7 5 43 c18 140 116 399 180 478 l21 25 158 -121 c88
-66 164 -123 170 -127 9 -5 149 166 187 229 4 6 -58 59 -149 128 -128 97 -153
120 -143 132 21 26 143 102 229 144 76 36 160 66 242 84 l28 6 2 -282 3 -283
153 -3 152 -3 0 296 0 295 43 -6 c23 -4 72 -12 109 -20z m-1380 -206 c-143
-181 -241 -384 -293 -608 -36 -154 -37 -444 -2 -622 l6 -28 -90 0 c-77 0 -95
3 -124 23 -71 47 -69 29 -69 637 0 608 -2 590 69 637 33 22 40 23 293 23 l260
0 -50 -62z m-3960 -220 l3 -123 163 -3 162 -2 0 125 c0 69 1 125 3 125 1 0 35
-9 75 -20 62 -17 193 -76 240 -108 11 -7 -8 -30 -75 -95 l-88 -86 117 -118
118 -118 88 88 89 89 46 -89 c39 -76 87 -205 87 -234 0 -5 -54 -9 -120 -9
l-120 0 0 -165 0 -165 121 0 121 0 -7 -32 c-13 -65 -53 -168 -90 -233 l-37
-67 -89 88 -89 89 -117 -118 -118 -117 89 -89 88 -89 -67 -37 c-65 -37 -168
-77 -232 -90 l-33 -7 0 121 0 121 -165 0 -165 0 0 -120 c0 -66 -4 -120 -9
-120 -24 0 -154 46 -216 77 -113 56 -112 50 -15 148 l85 85 -115 115 -115 115
-86 -86 -86 -86 -20 29 c-44 62 -81 148 -118 281 -6 22 -6 22 119 22 l126 0 0
165 0 165 -124 0 -124 0 9 40 c20 89 107 280 127 280 4 0 44 -37 89 -82 l83
-83 117 118 118 117 -83 83 c-45 45 -82 85 -82 89 0 21 259 135 312 138 4 0 9
-55 10 -122z m-927 -220 c-47 -100 -88 -230 -106 -337 -17 -100 -14 -292 5
-395 10 -49 14 -92 9 -96 -4 -4 -483 -166 -1063 -359 l-1056 -351 -313 2 -313
3 1137 813 1138 812 303 0 303 0 -44 -92z m4005 -305 c0 -219 3 -408 6 -420
l6 -23 -866 0 -866 0 7 43 c16 84 9 337 -11 422 -25 107 -70 236 -111 313
l-33 62 934 0 934 0 0 -397z"/>
<path d="M11133 1736 c-109 -35 -195 -118 -228 -217 -24 -71 -17 -186 16 -254
66 -140 231 -219 380 -181 109 28 174 81 230 186 20 38 24 59 24 140 0 107
-17 154 -81 228 -74 87 -235 133 -341 98z"/>
<path d="M6261 1915 c-188 -42 -346 -185 -402 -364 -27 -86 -29 -214 -5 -296
74 -252 298 -411 554 -392 382 28 607 431 433 775 -105 207 -357 328 -580 277z
m230 -291 c88 -44 139 -129 139 -234 0 -77 -22 -131 -72 -182 -56 -55 -102
-73 -188 -73 -86 0 -132 18 -188 73 -49 50 -72 105 -72 180 0 100 43 180 125
228 80 47 173 50 256 8z"/>
<path d="M5435 4655 c-47 -17 -71 -43 -85 -93 -13 -49 -13 -814 0 -863 5 -19
24 -48 41 -65 l30 -29 1775 -3 c1962 -2 1813 -7 1855 61 18 31 19 49 17 479
l-3 447 -29 30 c-17 17 -46 36 -65 41 -23 6 -656 10 -1766 10 -1467 -1 -1736
-3 -1770 -15z m3365 -525 l0 -260 -1590 0 -1590 0 0 260 0 260 1590 0 1590 0
0 -260z"/>
</g>
</svg>
