<svg xmlns="http://www.w3.org/2000/svg" width="60" height="54" viewBox="0 0 60 54"><g transform="translate(-2 -5)"><path d="M26,37h2v5H26Z"/><path d="M23,37h2v5H23Z"/><path d="M20,37h2v5H20Z"/><path d="M37,17H49a1,1,0,0,0,1-1V12a1,1,0,0,0-1-1H37a1,1,0,0,0-1,1v4A1,1,0,0,0,37,17Zm1-4H48v2H38Z"/><path d="M24,46a5,5,0,1,0,5,5A5.006,5.006,0,0,0,24,46Zm0,8a3,3,0,1,1,3-3A3,3,0,0,1,24,54Z"/><circle cx="2" cy="2" r="2" transform="translate(22 49)"/><path d="M62,39a15.963,15.963,0,0,0-8-13.848V20h1a2,2,0,0,0,2-2V12a2,2,0,0,0-2-2H53.816A3,3,0,0,0,51,8H47V7a2,2,0,0,0-2-2H41a2,2,0,0,0-2,2V8H37V7a2,2,0,0,0-2-2H31a2,2,0,0,0-2,2V8H13a3,3,0,0,0-3,3v8a1,1,0,0,0,1.707.707L17.414,14H22v1H18a1,1,0,0,0-.707.293l-4,4A1,1,0,0,0,13,20v9a1,1,0,0,0,1,1h1v4H14a1,1,0,0,0-1,1v5a3,3,0,0,1-2.827-2.035A.986.986,0,0,0,11,37V33.825A2.357,2.357,0,0,0,12,32V26a.991.991,0,0,0-.114-.443l.009,0-2-4A1,1,0,0,0,9,21H5a1,1,0,0,0-.895.553l-2,4,.009,0A.983.983,0,0,0,2,26v6a2.357,2.357,0,0,0,1,1.825V37a1,1,0,0,0,1,1h.059A9.01,9.01,0,0,0,13,46h.556A3.992,3.992,0,0,0,16,47.858V56a3,3,0,0,0,3,3H36a2.985,2.985,0,0,0,2.22-1H43a8.979,8.979,0,0,0,7.149-3.555A15.948,15.948,0,0,0,62,39ZM4,32V27h6v5c0,.249-1.064,1-3,1S4,32.249,4,32Zm1.618-9H8.382l1,2H4.618ZM7,35a8.365,8.365,0,0,0,2-.233V36H5V34.767A8.365,8.365,0,0,0,7,35Zm-.92,3H8.1A5.009,5.009,0,0,0,13,42v2A7.006,7.006,0,0,1,6.08,38ZM55,18H54V12h1ZM41,7h4V8H41ZM31,7h4V8H31ZM17,12a1,1,0,0,0-.707.293L12,16.586V11a1,1,0,0,1,1-1H51a1,1,0,0,1,1,1V28H50V19a1,1,0,0,0-1-1H35.414l-5.707-5.707A1,1,0,0,0,29,12ZM48,37.026A4.98,4.98,0,0,0,46,41v8a3,3,0,0,1-3,3H39v-.142A4,4,0,0,0,42,48V44a1,1,0,0,0,1-1V39a1,1,0,0,0-1-1h-.22l-.811-3.242A1,1,0,0,0,40,34h-.722A1.993,1.993,0,0,1,41,33h7ZM36,20h5v6H36Zm12,6H43V20h5ZM39.219,36l.5,2H36.281l.5-2ZM35,42V40h6v2Zm1,2h4v4a2,2,0,0,1-4,0ZM48,31H41a3.959,3.959,0,0,0-2,.556V28h9v1a1,1,0,0,0,1,1h.722A1.993,1.993,0,0,1,48,31ZM24,14h4.586L34,19.414V27a1,1,0,0,0,1,1h2v3.556A3.959,3.959,0,0,0,35,31H28a1.993,1.993,0,0,1-1.722-1H32a1,1,0,0,0,1-1V20a1,1,0,0,0-.293-.707l-4-4A1,1,0,0,0,28,15H24ZM15,28V21H31v7Zm3.414-11h9.172l2,2H16.414ZM15,44V36H29v7H20a1,1,0,0,0-1,1,2,2,0,0,1-4,0ZM36,57H19a1,1,0,0,1-1-1V47.859A4,4,0,0,0,20.873,45H30a1,1,0,0,0,1-1V35a1,1,0,0,0-1-1H17V30h7.142A4,4,0,0,0,28,33h7a1.993,1.993,0,0,1,1.722,1H36a1,1,0,0,0-.97.758L34.22,38H34a1,1,0,0,0-1,1v4a1,1,0,0,0,1,1v4a4,4,0,0,0,3,3.858V56a1,1,0,0,1-1,1Zm7-1H39V54h4a5.006,5.006,0,0,0,5-5V41a3,3,0,0,1,3-3h2v2H52a2,2,0,0,0-2,2v7A7.009,7.009,0,0,1,43,56Zm8.523-4.13A8.947,8.947,0,0,0,52,49V42h1.051A2.5,2.5,0,0,0,58,41.5v-5a2.5,2.5,0,0,0-4.949-.5H51a5,5,0,0,0-1,.1V32.444A3.992,3.992,0,0,0,51.858,30H53a1,1,0,0,0,1-1V27.514A14,14,0,0,1,51.523,51.87ZM55,41.5v-5a.5.5,0,0,1,1,0v5a.5.5,0,0,1-1,0Z"/><path d="M6,28H8v4H6Z"/><path d="M37,21h3v2H37Z"/><path d="M44,21h3v2H44Z"/><path d="M34.5,53A1.5,1.5,0,1,0,36,54.5,1.5,1.5,0,0,0,34.5,53Zm0,2a.5.5,0,1,1,.5-.5A.5.5,0,0,1,34.5,55Z"/><path d="M28.5,24A1.5,1.5,0,1,0,30,25.5,1.5,1.5,0,0,0,28.5,24Zm0,2a.5.5,0,1,1,.5-.5A.5.5,0,0,1,28.5,26Z"/><path d="M17.5,24A1.5,1.5,0,1,0,19,25.5,1.5,1.5,0,0,0,17.5,24Zm0,2a.5.5,0,1,1,.5-.5A.5.5,0,0,1,17.5,26Z"/></g></svg>