<svg xmlns="http://www.w3.org/2000/svg" width="82.5" height="44" viewBox="0 0 82.5 44"><g transform="translate(0)"><g transform="translate(0 0)"><path d="M37.125,22a4.125,4.125,0,1,0,4.125,4.125A4.125,4.125,0,0,0,37.125,22Zm0,5.5A1.375,1.375,0,1,1,38.5,26.125,1.375,1.375,0,0,1,37.125,27.5Z" transform="translate(12.375 8.25)"/><circle cx="1" cy="1" r="1" transform="translate(14.25 36)"/><path d="M81.125,41.25H79.434l2.612-5.019a4.042,4.042,0,0,0,0-3.712L79.181,27.01a4.263,4.263,0,0,0-3.789-2.26H70.359a4.263,4.263,0,0,0-3.792,2.269L65.421,29.23l-1.7-.08L58.949,22h.671a4.136,4.136,0,0,0,4.042-3.315L65.753,8.25h1.622a4.125,4.125,0,1,0,0-8.25H52.25a4.125,4.125,0,0,0-4.125,4.125H2.75A2.75,2.75,0,0,0,0,6.875v5.067a3.138,3.138,0,0,0,1.613,2.771,3.135,3.135,0,0,0,3.2-.047l3.818-2.291H16.5v2.75H12.375A4.125,4.125,0,0,0,8.25,19.25v6.377l-4.9,5.878A2.589,2.589,0,0,0,5.335,35.75H8.388a6.768,6.768,0,0,0,1.272,5.5H1.375a1.375,1.375,0,0,0,0,2.75H30.25a1.375,1.375,0,1,0,0-2.75H20.589a6.768,6.768,0,0,0,1.272-5.5h1.767A4.125,4.125,0,0,0,27.5,38.5H33a4.125,4.125,0,0,0,3.872-2.75h3.113a9.6,9.6,0,0,0,2.793,5.5H35.75a1.375,1.375,0,0,0,0,2.75H81.125a1.375,1.375,0,0,0,0-2.75ZM61.837,36.634a2.366,2.366,0,0,1-1.864-.562,2.42,2.42,0,0,1,1.566-4.262h.114l4.452.2h.047l5.177.234a1.614,1.614,0,0,1,.122,3.215Zm-5.991-9.476a4.1,4.1,0,0,0,2.008-1.844L60.445,29.2a5.2,5.2,0,0,0-2.233,1.111,9.65,9.65,0,0,0-2.366-3.154Zm5.123-9.008a1.375,1.375,0,0,1-1.349,1.1H50.875v-11H62.948ZM19.25,19.25V12.375H48.125V19.25ZM50.875,4.125A1.375,1.375,0,0,1,52.25,2.75H67.375a1.375,1.375,0,1,1,0,2.75h-16.5Zm-2.75,5.5H9.1L7.725,6.875h40.4ZM3.4,12.308a.428.428,0,0,1-.648-.366V6.875h1.9l1.8,3.6Zm8.977,5.567H16.5V19.25A2.75,2.75,0,0,0,19.25,22H55.989l-.428,1.709a1.375,1.375,0,0,1-1.332,1.041H11v-5.5a1.375,1.375,0,0,1,1.375-1.375ZM11,37.125a4.125,4.125,0,1,1,4.125,4.125A4.125,4.125,0,0,1,11,37.125Zm4.125-6.875A6.843,6.843,0,0,0,9.661,33H5.688l4.58-5.5H42.778A9.6,9.6,0,0,0,39.985,33H36.872A4.125,4.125,0,0,0,33,30.25H27.5A4.125,4.125,0,0,0,23.628,33H20.589A6.843,6.843,0,0,0,15.125,30.25ZM33,35.75H27.5a1.375,1.375,0,1,1,0-2.75H33a1.375,1.375,0,1,1,0,2.75Zm9.625-1.375A6.875,6.875,0,1,1,49.5,41.25,6.875,6.875,0,0,1,42.625,34.375ZM58.3,38.248A5.188,5.188,0,0,0,61.544,39.4a5.474,5.474,0,0,0,.619-.036L65.143,39l1.173,2.248H56.222a9.64,9.64,0,0,0,2.078-3Zm12.059,3a1.512,1.512,0,0,1-1.35-.785l-.946-1.819,3.719-.454a4.364,4.364,0,0,0-.33-8.69l-3.006-.138L69,28.293a1.519,1.519,0,0,1,1.363-.793h5.033a1.513,1.513,0,0,1,1.352.785l2.86,5.5a1.272,1.272,0,0,1,0,1.181l-2.856,5.49a1.519,1.519,0,0,1-1.356.793Z" transform="translate(0 0)"/><path d="M42.148,13.093a1.375,1.375,0,0,0,1.944-1.944L41.343,8.4A1.375,1.375,0,0,0,39.4,10.343Z" transform="translate(14.63 3.005)"/></g></g></svg>