<svg xmlns="http://www.w3.org/2000/svg" width="62" height="40" viewBox="0 0 62 40"><g transform="translate(-1 -12)"><path d="M13,42a3,3,0,1,0,3,3A3,3,0,0,0,13,42Zm0,4a1,1,0,1,1,1-1A1,1,0,0,1,13,46Z"/><path d="M47,42a3,3,0,1,0,3,3A3,3,0,0,0,47,42Zm0,4a1,1,0,1,1,1-1A1,1,0,0,1,47,46Z"/><path d="M60,34H59V13a1,1,0,0,0-1-1H2a1,1,0,0,0-1,1V35a1,1,0,0,0,1,1H4v2a1,1,0,0,0,.293.707L7,41.414A6.937,6.937,0,0,0,6,45a7,7,0,0,0,13.92,1H21v1a1,1,0,0,0,1,1H38a1,1,0,0,0,1-1V46h1.08A6.995,6.995,0,1,0,53,41.414L54.414,40H57v3a1,1,0,0,0,.293.707l2,2A1,1,0,0,0,60,46h2a1,1,0,0,0,1-1V37A3,3,0,0,0,60,34ZM34,31V30H52v1Zm0-14h4v1H34ZM52,28H50.414l-2-2H52ZM40.414,28l-2-2h2.172l2,2Zm5,0-2-2h2.172l2,2ZM52,21H48V20h4ZM40,21V20h6v1Zm12-3H48V17h4Zm-6,0H40V17h6ZM34,20h4v1H34Zm0,3H52v1H34Zm0,3h1.586l2,2H34ZM52,15H48V14h4Zm-6,0H40V14h6Zm-8,0H34V14h4ZM32,31H28V14h4ZM8,31V30H26v1ZM8,17h4v1H8Zm6.414,11-2-2h2.172l2,2Zm5,0-2-2h2.172l2,2Zm5,0-2-2H26v2ZM14,21V20h6v1Zm8-1h4v1H22Zm4-2H22V17h4Zm-6,0H14V17h6ZM8,20h4v1H8Zm0,3H26v1H8Zm0,3H9.586l2,2H8ZM26,15H22V14h4Zm-6,0H14V14h6Zm-8,0H8V14h4ZM8,33h3v1H8Zm5,0h4v1H13Zm6,0h4v1H19Zm6,0h4v1H25Zm6,0h4v1H31Zm6,0h4v1H37Zm6,0h4v1H43Zm6,0h3v1H49Zm6,1H54V14h3V34ZM3,14H6V34H3ZM6,36H54v1.586l-2.27,2.27A6.946,6.946,0,0,0,43.413,39H16.587a6.948,6.948,0,0,0-8.317.855L6,37.586Zm7,14a5,5,0,1,1,5-5A5.006,5.006,0,0,1,13,50Zm18.5-6L33,46H28.5L27,44Zm-7,0L26,46H23V44ZM37,46H35.5L34,44h3Zm1-4H22a1,1,0,0,0-1,1v1H19.92a6.954,6.954,0,0,0-1.184-3H41.264a6.954,6.954,0,0,0-1.184,3H39V43A1,1,0,0,0,38,42Zm9,8a5,5,0,1,1,5-5A5.006,5.006,0,0,1,47,50Zm9-14h4a1,1,0,0,1,0,2H56Zm4.414,8L59,42.586V40h1a2.966,2.966,0,0,0,1-.184V44Z"/></g></svg>