<svg xmlns="http://www.w3.org/2000/svg" width="74.391" height="48.028" viewBox="0 0 74.391 48.028"><g transform="translate(-1 -11.972)"><path d="M74.192,44.368a1.2,1.2,0,0,0,1.2-1.2v-4.8a1.2,1.2,0,0,0-1.2-1.2h-1.2v-19.2a1.2,1.2,0,0,0,1.2-1.2v-3.6a1.2,1.2,0,0,0-1.2-1.2H29.8a1.2,1.2,0,0,0-1.2,1.2v3.6a1.2,1.2,0,0,0,1.2,1.2v3.6H26.2v-1.2a2.4,2.4,0,0,0-2.4-2.4H15.689A4.832,4.832,0,0,0,12.3,19.376l-7.49,7.491A4.767,4.767,0,0,0,3.4,30.261v3.53a3.579,3.579,0,0,0,0,6.758v6.22a4.8,4.8,0,0,0,4.8,4.8h3.6a1.2,1.2,0,0,0,1.2-1.2v-1.2h2.195A7.129,7.129,0,0,0,14.2,52.8a7.2,7.2,0,1,0,14.4,0,7.092,7.092,0,0,0-.114-1.233h2.734a3.579,3.579,0,0,0,6.758,0H39.51A7.092,7.092,0,0,0,39.4,52.8a7.2,7.2,0,0,0,14.4,0,7.091,7.091,0,0,0-.114-1.233h1.427a7.192,7.192,0,1,0,14.179,2.424h.14a3.61,3.61,0,0,0,3.566-3.6V49.168h2.4v-2.4h-2.4v-2.4Zm-1.2-2.4H26.2v-2.4H72.992Zm-42-27.6h40.8v1.2H31Zm39.6,3.6v19.2H32.2v-19.2Zm-40.8,6v13.2H26.2v-13.2Zm-14.108-3.6H23.8v21.6H18.03A3.6,3.6,0,0,1,21.4,39.6a1.2,1.2,0,0,0,1.2-1.2V34.8H22.59c0-.012.007-.022.007-.034V22.737a1.2,1.2,0,0,0-1.2-1.2H13.529l.463-.463a2.418,2.418,0,0,1,1.7-.7Zm-5.09,25.2H5.8v-1.2h4.8Zm1.2-3.6h-6v-1.2H7a1.2,1.2,0,0,0,1.2-1.2v-3.6h12v1.353a6.009,6.009,0,0,0-4.659,4.646Zm-5.3-13.4,4.628-4.628H20.2v9.632H5.8V30.26A2.385,2.385,0,0,1,6.5,28.564ZM4.6,35.969H5.8v2.4H4.6a1.2,1.2,0,0,1,0-2.4Zm3.6,13.2a2.392,2.392,0,0,1-2.066-1.2H10.6v1.2ZM21.4,57.6a4.8,4.8,0,1,1,4.8-4.8A4.8,4.8,0,0,1,21.4,57.6Zm14.4-7.233a1.2,1.2,0,0,1-2.4,0v-1.2h2.4Zm10.8,7.233a4.8,4.8,0,1,1,4.8-4.8A4.8,4.8,0,0,1,46.595,57.6Zm15.6,0a4.8,4.8,0,1,1,4.8-4.8A4.8,4.8,0,0,1,62.193,57.6Zm8.4-7.21a1.2,1.2,0,0,1-1.188,1.2h-.121a7.187,7.187,0,0,0-13.294-2.424H52.8a7.182,7.182,0,0,0-12.41,0H38.2v-1.2a1.2,1.2,0,0,0-1.2-1.2H32.2a1.2,1.2,0,0,0-1.2,1.2v1.2H27.6a7.173,7.173,0,0,0-10.121-2.4H13v-2.4H70.592Z" transform="translate(0 0)"/><circle cx="2.4" cy="2.4" r="2.4" transform="translate(18.998 50.401)"/><circle cx="2.4" cy="2.4" r="2.4" transform="translate(44.195 50.401)"/><circle cx="2.4" cy="2.4" r="2.4" transform="translate(59.793 50.401)"/><path d="M9,32.972h4.8v2.4H9Z" transform="translate(1.599 4.197)"/><path d="M29,17.972H62.6v2.4H29Z" transform="translate(5.596 1.199)"/><path d="M29,21.972H62.6v2.4H29Z" transform="translate(5.596 1.999)"/><path d="M29,25.972H62.6v2.4H29Z" transform="translate(5.596 2.798)"/><path d="M29,29.972H62.6v2.4H29Z" transform="translate(5.596 3.597)"/></g></svg>